<svg xmlns="http://www.w3.org/2000/svg" viewBox="0 0 1000 1000" width="1000" height="1000">
    <defs>
        <style>
            :root{
            /* Toile/structure (image) */
            --bg1:#b94a35;
            --bg2:#b94a30;
            --bg3:#b94a25;

            /* Terre battue (image) */
            --clayLight:#AF503A;
            --clayMid:#9A3B2A;
            --clayDark:#7C2F22;

            /* Accents */
            --steel:#675E5B;
            --line:#F8F7F4;
            --ink:#1A1A1A;
            }
        </style>

        <!-- Clip logo rond -->
        <clipPath id="logoClip">
            <circle cx="500" cy="500" r="470"/>
        </clipPath>

        <!-- Fond (toile indoor) -->
        <radialGradient id="bg" cx="35%" cy="25%" r="90%">
            <stop offset="0" stop-color="var(--bg1)"/>
            <stop offset="0.6" stop-color="var(--bg2)"/>
            <stop offset="1" stop-color="var(--bg3)"/>
        </radialGradient>

        <!-- Terre battue -->
        <linearGradient id="clay" x1="0" y1="0" x2="1" y2="1">
            <stop offset="0" stop-color="var(--clayLight)"/>
            <stop offset="0.55" stop-color="var(--clayMid)"/>
            <stop offset="1" stop-color="var(--clayDark)"/>
        </linearGradient>

        <!-- Clip court (bords arrondis) -->
        <clipPath id="courtClip">
            <rect x="240" y="110" width="520" height="780" rx="42" ry="42"/>
        </clipPath>

        <!-- Maillage léger du filet -->
        <pattern id="netMesh" width="12" height="12" patternUnits="userSpaceOnUse">
            <path d="M0 0H12M0 0V12" stroke="var(--ink)" stroke-opacity="0.18" stroke-width="1"/>
        </pattern>

        <filter id="softShadow" x="-20%" y="-20%" width="140%" height="140%">
            <feDropShadow dx="0" dy="8" stdDeviation="10" flood-color="#000" flood-opacity="0.18"/>
        </filter>
    </defs>

    <g clip-path="url(#logoClip)">
        <!-- Fond rond -->
        <circle cx="500" cy="500" r="470" fill="url(#bg)"/>

        <!-- Court terre battue -->
        <rect x="240" y="110" width="520" height="780" rx="42" ry="42" fill="url(#clay)" filter="url(#softShadow)"/>

        <!-- Lignes -->
        <g clip-path="url(#courtClip)" fill="none" stroke="var(--line)" stroke-width="10" stroke-linecap="round" stroke-linejoin="round">
            <!-- Contour doubles -->
            <rect x="240" y="110" width="520" height="780" rx="42" ry="42"/>

            <!-- Singles -->
            <line x1="305" y1="110" x2="305" y2="890"/>
            <line x1="695" y1="110" x2="695" y2="890"/>

            <!-- Ligne du filet (repère) -->
            <line x1="240" y1="500" x2="760" y2="500" stroke="var(--ink)" stroke-width="8" stroke-opacity="0.85"/>

            <!-- Lignes de service -->
            <line x1="305" y1="290" x2="695" y2="290"/>
            <line x1="305" y1="710" x2="695" y2="710"/>

            <!-- Ligne centrale de service -->
            <line x1="500" y1="290" x2="500" y2="710"/>

            <!-- Marques centrales -->
            <line x1="500" y1="110" x2="500" y2="135"/>
            <line x1="500" y1="890" x2="500" y2="865"/>
        </g>

        <!-- Filet visuel -->
        <g>
            <rect x="240" y="492" width="520" height="16" fill="var(--ink)" opacity="0.35"/>
            <rect x="240" y="492" width="520" height="16" fill="url(#netMesh)" opacity="0.95"/>
            <!-- Poteaux -->
            <rect x="228" y="468" width="10" height="64" rx="3" fill="var(--steel)" opacity="0.95"/>
            <rect x="762" y="468" width="10" height="64" rx="3" fill="var(--steel)" opacity="0.95"/>
        </g>
    </g>

    <!-- Anneau -->
    <circle cx="500" cy="500" r="470" fill="none" stroke="var(--steel)" stroke-width="18"/>
    <circle cx="500" cy="500" r="470" fill="none" stroke="#FFFFFF" stroke-opacity="0.10" stroke-width="6"/>
</svg>
